<?xml version="1.0" standalone="no"?>
<!DOCTYPE svg PUBLIC "-//W3C//DTD SVG 20010904//EN"
 "http://www.w3.org/TR/2001/REC-SVG-20010904/DTD/svg10.dtd">
<svg version="1.0" xmlns="http://www.w3.org/2000/svg"
 width="499.000000pt" height="499.000000pt" viewBox="0 0 499.000000 499.000000"
 preserveAspectRatio="xMidYMid meet">

<g transform="translate(0.000000,499.000000) scale(0.100000,-0.100000)"
fill="#000000" stroke="none">
<path d="M1720 4621 c-183 -32 -325 -78 -473 -151 -419 -211 -719 -579 -842
-1034 -125 -465 -32 -965 252 -1364 85 -119 244 -279 364 -365 110 -79 339
-195 456 -231 189 -58 273 -70 493 -70 174 0 221 3 310 23 202 43 393 120 558
224 l64 40 646 -646 c443 -441 661 -652 692 -668 63 -33 186 -34 246 -2 128
68 184 210 137 348 -15 45 -78 111 -672 707 l-654 657 41 63 c98 151 182 358
223 554 20 94 23 137 23 314 0 174 -3 221 -23 310 -127 594 -528 1046 -1089
1230 -167 54 -278 72 -477 76 -132 2 -194 -1 -275 -15z m550 -300 c257 -65
456 -176 636 -356 55 -55 124 -134 153 -175 97 -138 188 -346 220 -500 19 -95
28 -264 20 -383 -33 -447 -311 -861 -719 -1070 -230 -118 -391 -153 -663 -144
-218 7 -357 42 -540 133 -377 191 -644 548 -723 969 -25 136 -16 405 19 535
121 460 441 808 878 954 167 56 238 66 449 62 147 -3 202 -8 270 -25z"/>
</g>
</svg>
