<?xml version="1.0" standalone="no"?>
<!DOCTYPE svg PUBLIC "-//W3C//DTD SVG 20010904//EN"
 "http://www.w3.org/TR/2001/REC-SVG-20010904/DTD/svg10.dtd">
<svg version="1.0" xmlns="http://www.w3.org/2000/svg"
 width="1431.000000pt" height="1251.000000pt" viewBox="0 0 1431.000000 1251.000000"
 preserveAspectRatio="xMidYMid meet">

<g transform="translate(0.000000,1251.000000) scale(0.100000,-0.100000)"
fill="#000000" stroke="none">
<path d="M6901 11655 l-591 -594 -473 -3 c-438 -3 -475 -5 -517 -23 -71 -30
-134 -80 -173 -137 -73 -106 -71 -90 -77 -619 l-5 -477 -459 -463 c-381 -385
-2340 -2360 -2456 -2477 l-35 -35 45 34 c45 34 226 181 420 341 198 163 345
283 420 343 41 33 100 80 130 106 58 48 499 407 730 594 74 60 165 134 201
165 36 30 213 174 393 320 305 247 510 414 802 652 100 82 263 214 510 413 27
22 55 46 62 53 8 7 30 25 50 40 21 15 39 30 42 33 3 3 163 134 355 290 323
263 489 399 619 506 28 24 85 70 127 102 42 33 83 66 90 74 8 7 50 42 95 78
44 35 192 155 328 267 l247 202 28 -22 c16 -13 102 -88 191 -168 306 -271 366
-325 425 -375 33 -27 80 -68 105 -90 26 -22 97 -83 160 -135 62 -52 134 -113
160 -135 42 -36 136 -114 725 -600 100 -82 265 -217 366 -300 449 -368 622
-511 948 -790 271 -232 268 -229 396 -340 50 -43 101 -88 115 -99 44 -36 -916
922 -1594 1590 -576 566 -940 927 -2054 2033 -134 132 -247 241 -251 241 -4 0
-274 -268 -600 -595z"/>
<path d="M9300 11406 c-80 -8 -196 -17 -257 -21 -62 -4 -113 -11 -113 -15 0
-4 55 -57 122 -116 67 -60 130 -116 138 -124 9 -8 54 -49 101 -90 46 -41 86
-77 89 -80 3 -3 68 -62 145 -130 181 -162 527 -473 634 -569 46 -42 87 -77 92
-79 15 -6 11 496 -5 580 -21 106 -76 243 -130 319 -74 105 -199 212 -311 265
-140 67 -265 81 -505 60z"/>
<path d="M4550 10234 c-85 -13 -234 -35 -330 -50 -96 -14 -200 -29 -230 -34
-30 -5 -104 -16 -165 -24 -439 -65 -526 -89 -685 -191 -162 -104 -267 -237
-326 -416 -17 -49 -19 -108 -22 -661 -2 -337 1 -608 6 -608 4 0 53 46 107 103
196 202 373 385 545 562 96 99 243 250 325 335 83 86 285 295 451 465 437 451
509 525 512 536 5 12 -7 11 -188 -17z"/>
<path d="M7625 10043 c-542 -26 -1055 -188 -1517 -480 -98 -62 -250 -171 -268
-192 -3 -3 -27 -24 -55 -46 -27 -21 -97 -86 -155 -145 -305 -305 -531 -682
-639 -1067 -56 -198 -79 -344 -90 -561 -17 -344 23 -679 115 -975 74 -235 224
-509 395 -722 276 -342 681 -612 1122 -746 293 -89 556 -124 890 -116 297 6
476 33 747 112 325 95 704 287 983 498 111 83 308 258 350 309 107 131 103
284 -10 339 -36 17 -57 20 -121 17 -83 -4 -77 -2 -327 -131 -196 -102 -394
-172 -594 -212 -849 -171 -1611 184 -1781 830 -22 85 -45 267 -37 289 3 7 23
22 44 32 92 47 419 218 428 224 10 7 116 63 390 205 72 37 166 87 210 110 44
23 128 68 188 99 149 78 311 163 382 201 33 18 141 74 240 125 99 51 212 111
250 133 39 22 79 45 91 51 42 23 150 117 206 179 157 176 241 372 254 589 19
312 -109 568 -381 760 -231 163 -570 260 -1000 288 -145 9 -180 10 -310 3z
m-40 -522 c238 -115 399 -481 382 -871 -6 -139 -22 -204 -66 -270 -54 -81 -75
-93 -796 -460 -165 -84 -347 -177 -404 -206 -57 -30 -108 -54 -114 -54 -14 0
-2 432 18 630 43 430 142 781 276 977 86 125 211 228 320 262 96 30 96 30 209
27 96 -2 111 -5 175 -35z"/>
<path d="M10332 8310 c-123 -26 -274 -123 -352 -225 -113 -148 -145 -374 -79
-550 114 -305 466 -464 760 -343 176 72 327 247 359 418 38 201 -19 392 -160
535 -108 111 -231 165 -390 171 -52 2 -114 -1 -138 -6z m496 -549 c3 -228 2
-231 -45 -231 -28 0 -28 -6 -4 -63 23 -54 11 -90 -31 -95 -26 -3 -57 28 -134
134 -20 28 -23 29 -132 32 -165 6 -166 6 -240 -88 -68 -88 -98 -101 -127 -56
-14 22 -14 28 5 76 23 58 18 70 -27 70 l-23 0 0 213 c0 118 3 217 7 220 4 4
173 6 377 5 l371 -3 3 -214z"/>
<path d="M10127 7924 c-4 -4 -7 -63 -7 -131 l0 -123 190 0 191 0 -3 128 -3
127 -181 3 c-99 1 -183 -1 -187 -4z m333 -99 c18 -21 4 -65 -20 -65 -24 0 -38
44 -20 65 7 8 16 15 20 15 4 0 13 -7 20 -15z"/>
<path d="M10550 7880 l0 -50 45 -1 c25 -1 63 -1 85 -1 108 0 101 -3 98 50 l-3
47 -112 3 -113 3 0 -51z m153 6 c9 -22 -9 -38 -39 -34 -34 4 -48 44 -17 50 25
6 51 -2 56 -16z"/>
<path d="M10550 7720 l0 -50 115 0 115 0 0 50 0 50 -115 0 -115 0 0 -50z m148
17 c20 -23 -4 -41 -50 -38 -18 1 -25 31 -11 44 11 12 50 8 61 -6z"/>
<path d="M10120 7605 c0 -13 43 -15 330 -15 287 0 330 2 330 15 0 13 -43 15
-330 15 -287 0 -330 -2 -330 -15z"/>
<path d="M10670 7533 c0 -7 51 -83 56 -83 9 0 -31 80 -42 84 -8 3 -14 2 -14
-1z"/>
<path d="M10192 7505 c-16 -35 -15 -40 4 -25 25 21 37 50 21 50 -8 0 -19 -11
-25 -25z"/>
<path d="M4219 7947 c-37 -29 -174 -139 -305 -245 -322 -261 -336 -271 -519
-418 -88 -70 -261 -209 -384 -308 l-223 -180 5 -195 c6 -228 15 -268 89 -421
46 -93 62 -116 147 -200 77 -77 114 -105 186 -142 50 -26 124 -57 165 -70 74
-22 82 -22 708 -26 349 -1 632 1 630 5 -1 5 -47 96 -100 203 -61 123 -114 245
-141 330 -131 398 -209 975 -193 1435 4 105 9 211 13 238 3 26 2 47 -3 46 -5
0 -39 -24 -75 -52z"/>
<path d="M9080 7774 c-113 -23 -220 -83 -310 -174 -87 -87 -119 -136 -156
-246 -24 -69 -28 -94 -27 -194 0 -100 4 -125 28 -189 67 -183 188 -309 365
-382 63 -26 92 -32 185 -36 138 -7 200 6 314 62 166 83 284 236 327 420 21 93
14 236 -16 325 -45 129 -156 267 -271 334 -103 61 -162 77 -294 81 -66 2 -131
1 -145 -1z m328 -232 c45 -33 66 -76 72 -152 l5 -65 39 -6 c68 -11 79 -36 73
-157 -5 -104 -21 -152 -51 -152 -30 0 -38 26 -26 82 6 29 10 76 8 103 -2 42
-6 50 -23 50 -17 0 -21 -9 -27 -66 -9 -96 -37 -176 -71 -205 -28 -23 -33 -24
-206 -24 -163 0 -180 2 -204 20 -31 25 -55 91 -67 190 -11 80 -19 96 -46 86
-15 -6 -16 -16 -11 -80 13 -146 69 -244 153 -265 54 -14 307 -14 355 -1 20 6
46 19 59 30 29 26 56 25 70 0 9 -17 6 -25 -16 -47 -24 -24 -26 -30 -16 -56 12
-33 7 -53 -15 -61 -18 -7 -50 18 -59 46 -5 17 -17 19 -200 18 l-194 -2 -15
-28 c-16 -30 -37 -42 -60 -34 -18 7 -19 37 -4 66 9 17 6 26 -25 57 -63 64
-106 194 -106 319 0 46 4 58 29 83 20 19 40 29 60 29 31 0 31 1 32 53 1 88 32
145 95 178 35 18 55 20 199 17 149 -3 162 -5 193 -26z"/>
<path d="M9055 7491 c-11 -5 -29 -19 -40 -31 -18 -20 -20 -36 -20 -160 0 -76
3 -141 6 -144 3 -4 30 -1 60 5 46 10 251 8 324 -3 19 -3 20 3 23 127 4 205 -6
215 -205 214 -70 0 -137 -4 -148 -8z"/>
<path d="M9150 7104 c-78 -12 -130 -27 -130 -35 0 -6 5 -19 10 -30 10 -18 23
-19 171 -19 l159 0 12 25 c6 14 9 28 5 31 -15 16 -179 36 -227 28z"/>
<path d="M10225 7015 c-5 -1 -39 -11 -75 -21 -186 -52 -349 -225 -395 -419
-96 -403 254 -781 659 -712 128 23 219 69 310 159 149 147 207 320 172 516
-50 281 -295 484 -580 481 -45 0 -85 -2 -91 -4z m63 -297 c2 -62 6 -78 18 -78
12 0 15 9 12 37 -2 22 2 38 10 41 6 2 12 14 12 28 0 14 10 30 25 40 35 23 81
4 90 -37 4 -16 11 -29 17 -29 6 0 7 -15 3 -40 -4 -25 -3 -40 4 -40 5 0 11 17
13 38 l3 37 78 3 77 3 0 -41 c0 -29 4 -40 15 -40 9 0 15 -9 15 -25 l0 -25
-195 0 -195 0 0 -130 c0 -80 4 -130 10 -130 6 0 10 47 10 120 l0 120 135 0
135 0 0 -125 0 -125 50 0 50 0 0 -120 0 -120 -360 0 -360 0 0 360 0 360 163
-2 162 -3 3 -77z"/>
<path d="M10010 6440 l0 -310 115 0 115 0 0 310 0 310 -115 0 -115 0 0 -310z
m190 -6 c0 -33 -33 -30 -38 4 -3 17 2 22 17 22 16 0 21 -6 21 -26z"/>
<path d="M10390 6729 c0 -5 5 -7 10 -4 6 3 10 8 10 11 0 2 -4 4 -10 4 -5 0
-10 -5 -10 -11z"/>
<path d="M10380 6654 c0 -9 7 -14 17 -12 25 5 28 28 4 28 -12 0 -21 -6 -21
-16z"/>
<path d="M10547 6663 c-15 -14 -6 -24 20 -21 34 4 43 28 11 28 -14 0 -28 -3
-31 -7z"/>
<path d="M10360 6498 c0 -17 3 -20 9 -9 5 8 18 12 30 8 14 -3 21 0 21 9 0 9
-11 14 -30 14 -24 0 -30 -4 -30 -22z"/>
<path d="M10477 6513 c-4 -3 -7 -48 -7 -100 l0 -93 30 0 c20 0 30 5 30 15 0 9
-8 14 -22 12 -17 -1 -24 4 -26 22 -3 21 0 23 22 19 20 -4 26 -1 26 12 0 13 -6
16 -25 12 -24 -4 -25 -2 -25 42 0 42 2 46 25 46 14 0 25 5 25 10 0 11 -43 14
-53 3z"/>
<path d="M10360 6368 c0 -47 1 -48 30 -48 23 0 30 5 30 19 0 14 -6 17 -25 13
-21 -3 -25 0 -25 18 0 18 4 21 25 18 18 -4 25 -1 25 11 0 11 -9 16 -30 16 -29
0 -30 -1 -30 -47z"/>
<path d="M10290 6200 l0 -70 170 0 170 0 0 70 0 70 -170 0 -170 0 0 -70z m190
30 c0 -13 -7 -20 -20 -20 -13 0 -20 7 -20 20 0 13 7 20 20 20 13 0 20 -7 20
-20z"/>
<path d="M6355 4232 c-11 -7 -125 -384 -125 -409 0 -10 41 -13 169 -13 l169 0
21 63 c41 128 101 336 101 351 0 14 -22 16 -162 16 -90 0 -168 -4 -173 -8z"/>
<path d="M6214 3696 c-228 -43 -426 -147 -574 -303 -96 -101 -106 -113 -162
-203 -61 -99 -112 -227 -139 -351 -30 -140 -24 -359 14 -501 83 -313 299 -576
583 -709 435 -204 944 -110 1270 233 320 338 392 831 182 1253 -54 108 -113
189 -208 284 -131 131 -295 225 -480 277 -80 22 -120 27 -255 30 -106 2 -184
-1 -231 -10z m387 -525 c125 -39 258 -148 318 -260 52 -97 63 -140 68 -261 6
-134 -12 -221 -68 -325 -61 -112 -207 -231 -324 -264 -317 -90 -629 64 -732
360 -86 249 5 538 216 677 76 51 143 79 231 96 55 10 226 -3 291 -23z"/>
<path d="M10295 3695 c-288 -53 -547 -226 -709 -473 -79 -121 -118 -210 -152
-347 -88 -358 13 -738 268 -1010 230 -245 561 -370 896 -337 156 15 255 42
387 106 243 119 418 303 528 556 35 81 55 75 -248 78 l-270 2 -48 -64 c-32
-44 -71 -80 -121 -114 -101 -68 -178 -93 -301 -99 -280 -15 -514 136 -600 386
-8 24 -15 54 -15 67 l0 24 835 0 835 0 6 26 c13 53 -3 316 -25 395 -79 289
-273 541 -520 676 -187 103 -346 144 -550 142 -69 -1 -158 -7 -196 -14z m387
-486 c100 -33 171 -76 236 -141 56 -56 109 -139 127 -195 l6 -23 -556 0 -557
0 6 25 c12 46 80 150 131 200 77 75 212 140 330 159 64 10 214 -4 277 -25z"/>
<path d="M13130 3690 c-235 -64 -394 -213 -456 -425 -22 -79 -22 -242 1 -322
61 -211 239 -360 557 -466 101 -34 218 -89 263 -123 50 -38 75 -91 75 -158 0
-134 -80 -205 -231 -206 -137 0 -223 66 -250 192 l-12 58 -248 0 -249 0 0 -35
c0 -20 7 -70 16 -113 58 -281 251 -474 543 -544 116 -27 346 -21 461 12 217
63 374 202 452 399 61 154 43 419 -38 557 -31 53 -107 131 -167 173 -64 44
-216 115 -308 145 -213 68 -319 117 -369 170 -36 40 -41 138 -8 186 13 19 41
45 63 57 76 43 205 24 262 -38 25 -27 53 -99 53 -135 l0 -24 236 0 237 0 -7
68 c-10 102 -33 179 -79 266 -74 140 -192 238 -352 292 -69 23 -100 27 -225
30 -123 3 -157 1 -220 -16z"/>
<path d="M312 2618 l3 -1053 598 -3 597 -2 0 239 0 239 -27 7 c-15 3 -169 5
-343 4 l-315 -2 -3 196 -2 197 315 0 315 0 -2 188 -3 187 -312 3 -313 2 0 185
0 185 345 0 345 0 0 240 0 240 -600 0 -600 0 2 -1052z"/>
<path d="M2636 3648 c-8 -29 -7 -2036 0 -2065 l6 -23 249 0 249 0 1 598 c0
328 4 606 8 617 9 21 17 0 183 -440 50 -132 110 -289 133 -350 23 -60 65 -173
95 -250 29 -77 57 -148 62 -158 8 -15 29 -17 232 -17 221 0 223 0 234 23 7 12
41 99 76 192 35 94 107 285 160 425 54 140 125 327 158 415 33 88 64 164 69
170 5 5 9 -248 9 -608 l0 -617 239 0 c132 0 246 3 255 6 14 6 16 108 16 1055
l0 1049 -339 0 -339 0 -16 -42 c-9 -24 -45 -124 -82 -223 -116 -318 -295 -799
-309 -835 -8 -19 -30 -80 -50 -135 -20 -55 -40 -109 -44 -120 -5 -11 -14 -33
-21 -50 l-12 -30 -14 30 c-7 17 -38 95 -68 175 -30 80 -75 201 -101 270 -26
69 -62 166 -80 215 -18 50 -70 187 -115 305 -45 118 -100 266 -122 328 l-41
112 -337 0 -338 0 -6 -22z"/>
<path d="M7504 3653 c4 -9 33 -100 65 -202 33 -102 71 -220 85 -261 13 -41 71
-217 126 -390 160 -496 220 -680 245 -755 13 -38 51 -155 85 -259 33 -103 65
-197 71 -207 9 -18 25 -19 280 -19 l269 0 10 23 c5 12 34 103 65 202 31 99 72
225 90 280 18 55 44 136 58 180 25 80 131 413 212 665 24 74 86 268 139 431
53 162 96 303 96 312 0 15 -24 17 -264 17 l-264 0 -20 -62 c-34 -104 -149
-486 -218 -718 -14 -47 -29 -96 -34 -110 -5 -14 -36 -118 -71 -232 -34 -115
-66 -208 -70 -208 -4 0 -10 8 -13 18 -11 41 -79 261 -91 297 -8 22 -30 92 -49
155 -68 224 -208 676 -238 768 l-30 92 -270 0 c-247 0 -270 -1 -264 -17z"/>
<path d="M11840 2615 l0 -1055 258 2 257 3 3 1053 2 1052 -260 0 -260 0 0
-1055z"/>
<path d="M1700 2630 l0 -230 343 2 342 3 0 225 0 225 -342 3 -343 2 0 -230z"/>
<path d="M3476 850 c-60 -23 -115 -75 -147 -138 -34 -67 -34 -177 1 -246 51
-101 133 -151 245 -151 112 1 199 58 252 164 27 54 24 182 -5 237 -65 125
-218 184 -346 134z m184 -51 c60 -27 79 -45 106 -104 40 -85 25 -203 -34 -268
-50 -56 -145 -77 -227 -52 -96 31 -151 121 -143 234 7 98 54 167 131 195 59
20 115 19 167 -5z"/>
<path d="M6877 856 c-101 -37 -168 -115 -186 -219 -13 -73 2 -146 43 -207 30
-45 102 -98 146 -106 36 -8 37 -16 9 -61 -18 -29 -19 -37 -8 -44 26 -16 35 -9
59 40 19 42 28 50 59 56 79 14 166 70 155 99 -8 22 -18 20 -62 -8 -73 -48
-164 -55 -233 -20 -15 7 -43 32 -63 55 -91 107 -62 280 59 351 31 17 55 23
106 23 57 0 73 -4 117 -32 48 -30 51 -30 67 -13 15 16 14 19 -15 44 -60 50
-176 69 -253 42z"/>
<path d="M7517 856 c-98 -36 -162 -109 -187 -210 -42 -174 116 -353 292 -333
183 22 287 191 232 376 -17 60 -70 118 -136 152 -53 27 -149 35 -201 15z m156
-52 c120 -41 180 -200 120 -319 -54 -108 -189 -153 -294 -99 -65 33 -119 129
-119 212 0 89 63 178 147 208 51 18 90 17 146 -2z"/>
<path d="M8456 850 c-121 -47 -196 -194 -166 -321 25 -103 82 -169 174 -201
90 -31 185 -18 267 36 l39 26 0 104 c0 85 -3 105 -16 110 -9 3 -56 6 -105 6
-88 0 -89 0 -89 -25 0 -25 1 -25 80 -25 l80 0 0 -76 0 -75 -46 -20 c-72 -32
-141 -36 -199 -10 -65 29 -83 46 -111 106 -27 57 -30 111 -10 178 21 69 53
107 114 135 67 30 139 26 207 -11 39 -22 46 -23 56 -10 19 23 0 45 -62 70 -67
28 -147 29 -213 3z"/>
<path d="M13335 850 c-64 -25 -119 -79 -152 -148 -22 -47 -25 -64 -21 -126 11
-158 117 -260 273 -261 59 0 78 5 125 30 163 89 197 306 69 441 -72 75 -197
103 -294 64z m213 -67 c66 -40 97 -105 97 -199 0 -61 -4 -77 -30 -120 -81
-130 -270 -133 -359 -6 -25 35 -31 55 -34 113 -5 85 13 141 62 188 70 68 178
78 264 24z"/>
<path d="M796 761 c-8 -113 -7 -390 1 -422 4 -14 12 -19 27 -17 20 3 21 8 26
221 l5 218 46 -68 c126 -186 144 -212 150 -213 3 0 48 63 100 139 55 82 97
134 101 127 4 -6 7 -96 7 -201 0 -104 1 -198 1 -207 0 -12 8 -18 25 -18 l25 0
0 270 0 270 -28 0 c-25 0 -38 -16 -123 -142 -52 -78 -99 -143 -104 -145 -6 -2
-53 61 -106 139 -76 113 -101 144 -121 146 -25 3 -25 2 -32 -97z"/>
<path d="M1539 728 c0 -148 0 -389 0 -401 1 -4 88 -6 194 -5 184 3 192 4 192
23 0 19 -8 20 -167 23 l-168 2 0 100 0 99 148 3 c139 3 147 4 147 23 0 19 -8
20 -147 23 l-148 3 0 94 0 95 165 0 165 0 0 25 0 25 -190 0 -190 0 -1 -132z"/>
<path d="M2122 593 l3 -268 178 -3 177 -2 0 25 0 24 -151 3 -150 3 1 243 1
242 -31 0 -30 0 2 -267z"/>
<path d="M2672 593 l3 -268 22 -3 c22 -3 22 -1 25 120 l3 123 157 3 157 3 3
-123 3 -123 28 -3 27 -3 0 270 0 271 -30 0 -30 0 0 -120 0 -120 -160 0 -160 0
0 120 0 120 -25 0 -25 0 2 -267z"/>
<path d="M4050 590 l0 -270 25 0 c28 0 27 -6 27 123 l1 87 83 0 83 0 43 -57
c102 -137 117 -153 144 -153 13 0 24 3 24 8 0 4 -34 52 -75 107 -41 54 -75
102 -75 106 0 3 13 9 30 12 16 4 46 22 67 40 34 32 37 40 41 98 4 61 2 66 -32
105 -46 54 -88 64 -255 64 l-131 0 0 -270z m293 208 c98 -29 102 -164 6 -202
-50 -20 -234 -23 -242 -3 -6 16 -7 199 -1 209 8 13 193 9 237 -4z"/>
<path d="M4915 848 c-3 -7 -4 -128 -3 -268 l3 -255 25 0 c25 0 25 1 28 93 l3
92 78 0 c136 0 214 36 246 113 34 83 10 162 -64 205 -43 25 -56 27 -178 30
-106 3 -134 1 -138 -10z m292 -64 c15 -12 34 -39 42 -61 13 -36 12 -43 -5 -78
-32 -64 -59 -77 -173 -83 l-101 -5 0 128 0 127 105 -4 c86 -3 109 -7 132 -24z"/>
<path d="M5498 616 c-2 -135 -1 -255 2 -268 4 -14 13 -23 25 -23 18 0 20 8 23
103 l3 102 82 0 82 -1 45 -60 c25 -34 52 -69 60 -79 8 -10 24 -30 34 -44 13
-18 28 -26 49 -26 27 0 28 1 16 19 -8 11 -42 59 -76 106 -67 92 -73 105 -47
105 31 0 85 42 105 83 38 73 9 165 -64 205 -25 13 -64 17 -184 20 l-152 4 -3
-246z m285 183 c54 -15 77 -44 77 -97 0 -58 -14 -80 -63 -103 -32 -14 -66 -19
-144 -19 l-103 0 0 115 0 115 98 0 c53 0 114 -5 135 -11z"/>
<path d="M6122 593 l3 -268 193 -3 192 -2 0 25 0 25 -163 0 c-90 0 -166 2
-168 4 -2 2 -3 47 -1 100 l3 96 150 0 c150 0 150 0 147 23 -3 22 -6 22 -150
25 l-148 3 0 94 0 95 163 2 c154 3 162 4 162 23 0 19 -8 20 -193 23 l-192 2 2
-267z"/>
<path d="M9122 728 c-141 -309 -172 -380 -172 -394 0 -7 9 -14 21 -14 15 0 28
16 51 68 18 37 36 70 42 74 6 5 74 7 151 5 l140 -2 35 -70 c29 -58 40 -71 63
-73 15 -2 27 -1 27 1 0 2 -39 89 -86 193 -166 367 -154 344 -184 344 -25 0
-32 -10 -88 -132z m152 -67 c31 -72 56 -135 56 -140 0 -11 -231 -16 -242 -5
-7 7 112 274 122 274 4 0 33 -58 64 -129z"/>
<path d="M9662 593 l3 -268 25 0 c25 0 25 1 28 103 l3 102 82 0 82 -1 75 -102
c60 -81 81 -103 103 -105 15 -2 27 1 27 7 0 7 -87 129 -141 197 -6 8 8 20 45
38 43 21 59 36 75 70 26 53 26 79 0 132 -15 33 -32 49 -72 68 -47 24 -61 26
-194 26 l-143 0 2 -267z m290 207 c101 -28 105 -165 6 -205 -26 -10 -72 -15
-138 -15 l-100 0 0 115 0 115 98 0 c53 0 114 -5 134 -10z"/>
<path d="M10461 798 c-16 -35 -70 -154 -120 -265 -50 -110 -91 -204 -91 -207
0 -3 11 -6 25 -6 21 0 30 11 58 73 l34 73 146 2 c109 2 148 -1 154 -10 4 -7
20 -40 35 -73 21 -48 32 -61 52 -63 14 -2 26 1 26 6 0 11 -86 206 -193 439
-38 84 -45 92 -70 93 -25 0 -31 -7 -56 -62z m79 -40 c0 -5 9 -28 19 -51 10
-23 33 -73 50 -111 17 -37 28 -72 25 -77 -6 -10 -244 -13 -244 -3 0 3 15 40
34 82 90 202 86 195 101 182 8 -7 15 -17 15 -22z"/>
<path d="M10972 593 l3 -268 23 -3 22 -3 0 220 c0 133 4 221 9 221 6 0 23 -17
38 -37 33 -45 195 -252 266 -340 29 -36 58 -63 69 -63 17 0 18 15 18 270 l0
270 -25 0 -25 0 0 -217 -1 -218 -32 36 c-17 20 -77 93 -132 163 -178 227 -186
236 -211 236 l-24 0 2 -267z"/>
<path d="M11610 835 c0 -25 1 -25 90 -25 l90 0 0 -239 c0 -231 1 -240 20 -246
11 -3 24 -3 30 0 6 4 10 95 10 246 l0 239 90 0 c89 0 90 0 90 25 l0 25 -210 0
-210 0 0 -25z"/>
<path d="M12222 593 l3 -268 25 0 25 0 3 268 2 267 -30 0 -30 0 2 -267z"/>
<path d="M12512 593 l3 -268 130 1 c115 0 136 3 177 23 93 45 149 124 156 223
8 110 -47 206 -146 255 -52 26 -68 28 -190 31 l-132 4 2 -269z m269 202 c87
-31 138 -108 139 -208 0 -70 -24 -122 -76 -165 -48 -40 -103 -54 -199 -50
l-80 3 -3 218 -2 217 89 0 c54 0 105 -6 132 -15z"/>
</g>
</svg>
